<svg xmlns="http://www.w3.org/2000/svg" viewBox="0 0 1200 320" width="1200" height="320" role="img" aria-label="The tesseract demo — Schlegel projection, perspective hypercube.">
  <rect width="1200" height="320" fill="#0d0e10"></rect>
  <g transform="translate(56,108)">
    <text y="0" font-family="&#39;Geist Mono&#39;,&#39;Courier New&#39;,monospace" font-size="14" fill="#6c707a" letter-spacing="0.84">2026.04.28 / WRITING</text>
    <text y="58" font-family="&#39;msbel Hybrid&#39;,Georgia,serif" font-weight="400" font-size="44" fill="#ece8df" letter-spacing="-0.88">The tesseract demo</text>
    <text y="110" font-family="&#39;Geist Mono&#39;,&#39;Courier New&#39;,monospace" font-size="14" fill="#6c707a" letter-spacing="0.84">january 2024 / seven agents / one prompt / matplotlib at the end</text>
  </g>
  <g transform="translate(720,52)">
    <rect width="424" height="216" rx="12" fill="#16181c" stroke="#2a2d33" stroke-width="1.5"></rect>
    <g transform="translate(212,108)" fill="none" stroke-linecap="round">
      <g stroke="#6c707a" stroke-width="1.25">
        <polygon points="-92,-50 28,-92 92,-50 -28,-8" fill="none"></polygon>
        <polygon points="-92,8 28,-34 92,8 -28,50" fill="none"></polygon>
        <line x1="-92" y1="-50" x2="-92" y2="8"></line>
        <line x1="28" y1="-92" x2="28" y2="-34"></line>
        <line x1="92" y1="-50" x2="92" y2="8"></line>
        <line x1="-28" y1="-8" x2="-28" y2="50"></line>
      </g>
      <g stroke="#7aa7ff" stroke-width="1.5">
        <polygon points="-46,-22 14,-44 46,-22 -14,0" fill="none"></polygon>
        <polygon points="-46,8 14,-14 46,8 -14,30" fill="none"></polygon>
        <line x1="-46" y1="-22" x2="-46" y2="8"></line>
        <line x1="14" y1="-44" x2="14" y2="-14"></line>
        <line x1="46" y1="-22" x2="46" y2="8"></line>
        <line x1="-14" y1="0" x2="-14" y2="30"></line>
      </g>
      <g stroke="#7aa7ff" stroke-width="1.25" opacity="0.85">
        <line x1="-92" y1="-50" x2="-46" y2="-22"></line>
        <line x1="28" y1="-92" x2="14" y2="-44"></line>
        <line x1="92" y1="-50" x2="46" y2="-22"></line>
        <line x1="-28" y1="-8" x2="-14" y2="0"></line>
        <line x1="-92" y1="8" x2="-46" y2="8"></line>
        <line x1="28" y1="-34" x2="14" y2="-14"></line>
        <line x1="92" y1="8" x2="46" y2="8"></line>
        <line x1="-28" y1="50" x2="-14" y2="30"></line>
      </g>
    </g>
  </g>
</svg>