<svg xmlns="http://www.w3.org/2000/svg" viewBox="0 0 1200 640" width="100%" height="auto" font-family="Geist Mono, ui-monospace, monospace">
<defs>
  <pattern id="grid" width="20" height="20" patternUnits="userSpaceOnUse"><path d="M20 0 L0 0 0 20" stroke="#2a2d33" stroke-width="0.5" fill="none" opacity="0.3"></path></pattern>
  <radialGradient id="seaglow" cx="78%" cy="22%" r="55%"><stop offset="0%" stop-color="#5cd6c4" stop-opacity="0.10"></stop><stop offset="60%" stop-color="#7aa7ff" stop-opacity="0.04"></stop><stop offset="100%" stop-color="#16181c" stop-opacity="0"></stop></radialGradient>
  <marker id="arrow" viewBox="0 0 10 10" refX="9" refY="5" markerWidth="6" markerHeight="6" orient="auto"><path d="M0 0 L10 5 L0 10 z" fill="#5cd6c4"></path></marker>
  <marker id="arrowMuted" viewBox="0 0 10 10" refX="9" refY="5" markerWidth="6" markerHeight="6" orient="auto"><path d="M0 0 L10 5 L0 10 z" fill="#8a8f99"></path></marker>
</defs>
<rect width="100%" height="100%" fill="#16181c"></rect><rect width="100%" height="100%" fill="url(#grid)"></rect><rect width="100%" height="100%" fill="url(#seaglow)"></rect><text x="40" y="44" fill="#8a8f99" font-size="11" letter-spacing="0.2em">EMBER · A COLONY-COMMAND RPG, BY HAND, IN UNITY/GODOT</text>
<text x="40" y="76" fill="#ece8df" font-size="22" font-family="Fraunces, Georgia, serif">Godot client. Deterministic Python kernel. Two adapters.</text>
<text x="80" y="130" fill="#8a8f99" font-size="11" letter-spacing="0.1em">player surface</text>
<g><rect x="60" y="150" width="300" height="340" rx="10" fill="#16181c" stroke="#353941" stroke-width="1"></rect><text x="76" y="174" fill="#5cd6c4" font-size="13" font-weight="500">Godot 4.6 client</text><text x="76" y="194" fill="#6c707a" font-size="11">title · creation · gameplay · save/load</text></g>
<g font-size="11" fill="#c7c4bd"><text x="80" y="220">· BackendRuntime autoload</text><text x="80" y="244">· Title screen + character creation</text><text x="80" y="268">· Gameplay shell · top-down</text><text x="80" y="292">· Save/load · semantic desktop</text><text x="80" y="316">· Headless test runner</text></g>
<path d="M360 320 L520 320" stroke="#5cd6c4" stroke-width="1.25" marker-end="url(#arrow)" fill="none"></path>
<text x="370" y="310" fill="#5cd6c4" font-size="10">HTTP/JSON · :8741</text>
<path d="M520 340 L360 340" stroke="#8a8f99" stroke-width="1" stroke-dasharray="3 3" marker-end="url(#arrowMuted)" fill="none"></path>
<text x="560" y="130" fill="#8a8f99" font-size="11" letter-spacing="0.1em">deterministic kernel</text>
<g><rect x="540" y="150" width="300" height="340" rx="10" fill="#16181c" stroke="#353941" stroke-width="1"></rect><text x="556" y="174" fill="#ece8df" font-size="13" font-weight="500">FastAPI backend</text><text x="556" y="194" fill="#6c707a" font-size="11">campaign-first routes · canonical slices</text></g>
<g font-size="11" fill="#c7c4bd"><text x="560" y="220">· actors · effects · jobs</text><text x="560" y="244">· colony pressure · stores</text><text x="560" y="268">· travel · systems closure</text><text x="560" y="292">· deterministic simulation</text><text x="560" y="316">· save/load + projections</text></g>
<line x1="560" y1="360" x2="820" y2="360" stroke="#2a2d33" stroke-width="1"></line>
<text x="560" y="382" fill="#5cd6c4" font-size="11">ADAPTERS</text>
<text x="560" y="406" fill="#ece8df" font-size="13">fantasy_ember</text><text x="560" y="426" fill="#6c707a" font-size="10">DF + GemRB synthesis</text>
<text x="560" y="452" fill="#ece8df" font-size="13">scifi_frontier</text><text x="560" y="472" fill="#6c707a" font-size="10">space-age colony</text>
<g><rect x="880" y="150" width="280" height="100" rx="10" fill="#16181c" stroke="#353941" stroke-width="1"></rect><text x="896" y="174" fill="#5cd6c4" font-size="13" font-weight="500">Truth lanes</text><text x="896" y="194" fill="#6c707a" font-size="11">manual godot · pytest · headless · automation</text></g>
<g><rect x="880" y="270" width="280" height="80" rx="10" fill="#16181c" stroke="#353941" stroke-width="1"></rect><text x="896" y="294" fill="#ece8df" font-size="13" font-weight="500">Lessons from v1</text><text x="896" y="314" fill="#6c707a" font-size="11">AI-built RPG passed checks, was unplayable</text></g>
<g><rect x="880" y="370" width="280" height="120" rx="10" fill="#16181c" stroke="#353941" stroke-width="1"></rect><text x="896" y="394" fill="#ece8df" font-size="13" font-weight="500">Now: hand-built</text><text x="896" y="414" fill="#6c707a" font-size="11">system by system · each mechanic earned</text></g>
<text x="894" y="430" fill="#8a8f99" font-size="10">Morrowind in spirit.</text><text x="894" y="446" fill="#8a8f99" font-size="10">RimWorld in scope.</text><text x="894" y="462" fill="#8a8f99" font-size="10">Hand-crafted in Unity.</text>
<text x="40" y="600" fill="#6c707a" font-size="10" letter-spacing="0.15em">FRP-BACKEND · GODOT-CLIENT · DOCS/PRD/ACTIVE · TOOLS</text></svg>